<?xml version="1.0" encoding="UTF-8"?>
<svg id="Calque_1" data-name="Calque 1" xmlns="http://www.w3.org/2000/svg" viewBox="0 0 2857.76 669.41">
  <defs>
    <style>
      .cls-1 {
        stroke-width: 0px;
      }

      .cls-1, .cls-2 {
        fill: #ecba0d;
      }

      .cls-2 {
        stroke: #ecba0d;
        stroke-miterlimit: 10;
      }

      .cls-2, .cls-3 {
        stroke-width: 10px;
      }

      .cls-3 {
        fill: none;
        stroke: #fff4ea;
      }
    </style>
  </defs>
  <g>
    <path class="cls-3" d="m241.93,542.54c-15.12,0-26.86-4.29-35.2-12.86-8.37-8.57-12.56-20.43-12.56-35.53V158.01c0-15.9,4.06-27.95,12.23-36.13,8.17-8.17,19.81-12.26,34.91-12.26s27.36,4.09,35.53,12.26c8.15,8.17,12.23,20.23,12.23,36.13v304.31h164.11c13.06,0,23.05,3.49,30,10.41,6.93,6.98,10.41,16.74,10.41,29.4s-3.49,23.07-10.41,30c-6.95,6.93-16.94,10.41-30,10.41h-211.25Z"/>
    <path class="cls-3" d="m617.59,250.07c-7.9-8.3-19.44-12.35-34.63-12.35-14.38,0-25.52,4.05-33.62,12.35-8.3,8.51-12.35,20.86-12.35,37.06v210.22c0,15.8,4.05,28.15,12.35,36.86,8.1,8.91,19.24,13.16,33.62,13.16,15.59,0,27.14-4.25,34.83-13.16,7.9-8.71,11.75-21.06,11.75-36.86v-210.22c0-16.2-4.05-28.56-11.95-37.06Z"/>
    <path class="cls-3" d="m922.79,548.67c-48.58,0-89.62-9.07-123.08-27.26-33.46-18.14-59.07-43.8-76.84-76.84-17.76-33.09-26.63-71.85-26.63-116.35,0-34.28,5.21-65.08,15.6-92.43,10.41-27.36,25.41-50.93,45.02-70.76,19.58-19.78,43.68-34.78,72.25-45,28.55-10.17,60.82-15.3,96.74-15.3,22.05,0,44.07,2.24,66.12,6.73,22.05,4.48,43.25,12.66,63.68,24.52,8.57,5.28,14.38,11.71,17.44,19.28,3.06,7.57,3.89,15.4,2.47,23.57-1.45,8.17-4.71,15.4-9.82,21.73-5.11,6.33-11.64,10.51-19.58,12.56-7.97,2.04-17.04.4-27.26-4.88-13.45-7.37-27.85-12.86-43.15-16.54-15.32-3.69-31.74-5.53-49.31-5.53-28.98,0-53.17,5.53-72.55,16.54-19.38,11.01-33.98,27.06-43.77,48.09-9.79,21.03-14.7,46.84-14.7,77.43,0,46.14,11.11,81.02,33.39,104.69,22.22,23.72,55.19,35.53,98.89,35.53,14.28,0,29.27-1.54,45-4.58,9.6-1.86,19.1-4.07,28.48-6.64v-84.3h-55.11c-12.26,0-21.65-3.04-28.18-9.17-6.53-6.13-9.79-14.7-9.79-25.71s3.26-18.89,9.79-24.81c6.53-5.93,15.92-8.87,28.18-8.87h95.52c12.23,0,21.63,3.29,28.15,9.82,6.53,6.53,9.79,15.7,9.79,27.56v142.66c0,11.01-2.14,20.08-6.43,27.21-4.29,7.18-11.11,12.36-20.5,15.65-18.36,6.53-38.99,11.71-61.84,15.6-22.87,3.89-45.52,5.83-67.97,5.83Z"/>
    <path class="cls-3" d="m1209.96,547.43c-15.1,0-26.73-4.19-34.91-12.56-8.17-8.32-12.23-20.28-12.23-35.78V154.32c0-15.9,4.06-27.95,12.23-36.13,8.17-8.12,19.81-12.21,34.91-12.21s27.36,4.09,35.53,12.21c8.15,8.17,12.23,20.23,12.23,36.13v130.45h200.24v-130.45c0-15.9,4.16-27.95,12.53-36.13,8.37-8.12,20.31-12.21,35.83-12.21s26.73,4.09,34.91,12.21c8.15,8.17,12.23,20.23,12.23,36.13v344.77c0,15.5-4.09,27.46-12.23,35.78-8.17,8.37-19.81,12.56-34.91,12.56s-27.46-4.19-35.83-12.56c-8.37-8.32-12.53-20.28-12.53-35.78v-135.93h-200.24v135.93c0,15.5-3.99,27.46-11.93,35.78-7.97,8.37-19.91,12.56-35.83,12.56Z"/>
    <path class="cls-3" d="m1789.8,547.43c-15.1,0-26.73-4.19-34.91-12.56-8.17-8.32-12.23-20.28-12.23-35.78V189.25h-107.78c-13.06,0-23.07-3.49-30-10.41-6.95-6.93-10.41-16.74-10.41-29.4s3.46-21.73,10.41-28.45c6.93-6.73,16.94-10.12,30-10.12h311.06c12.66,0,22.45,3.39,29.4,10.12,6.93,6.73,10.39,16.19,10.39,28.45s-3.46,22.47-10.39,29.4c-6.95,6.93-16.74,10.41-29.4,10.41h-108.38v309.84c0,15.5-3.99,27.46-11.93,35.78-7.97,8.37-19.91,12.56-35.83,12.56Z"/>
  </g>
  <circle class="cls-1" cx="581.36" cy="123.89" r="56.3"/>
  <path class="cls-2" d="m1079.55,341.81v142.58c0,10.94-2.23,20.05-6.48,27.14-4.25,7.29-11.14,12.35-20.46,15.8-18.43,6.48-39.09,11.54-61.77,15.59-22.89,3.85-45.57,5.67-68.05,5.67-9.92,0-19.65-.41-28.96-1.22l-197.46-231.89c1.22-29.16,6.28-55.69,15.39-79.59,10.53-27.54,25.52-51.04,45.16-70.88,8.1-8.1,16.81-15.59,26.53-22.08l139.13,43.14c-27.34.61-50.02,6.08-68.66,16.61-19.44,11.14-34.02,27.14-43.74,48.2-9.92,20.86-14.79,46.78-14.79,77.36,0,46.17,11.14,81.01,33.42,104.7,22.28,23.69,55.09,35.44,98.83,35.44,14.38,0,29.37-1.42,44.96-4.45,9.72-2.03,19.24-4.05,28.56-6.68v-84.25h-55.09c-12.35,0-21.67-3.04-28.15-9.32-6.48-6.08-9.92-14.58-9.92-25.72,0-10.53,3.44-18.83,9.92-24.71,6.48-5.87,15.8-8.91,28.15-8.91h95.59c12.15,0,21.47,3.24,28.15,9.92,6.48,6.48,9.72,15.59,9.72,27.54Z"/>
  <path class="cls-2" d="m1553.45,381.91v117.26c0,15.39-4.05,27.34-12.15,35.64-8.3,8.51-19.85,12.56-35.04,12.56s-27.34-4.05-35.85-12.56c-8.3-8.3-12.56-20.25-12.56-35.64v-136.1h-200.09v136.1c0,15.39-4.05,27.34-11.95,35.64-8.1,8.51-19.85,12.56-35.85,12.56s-26.73-4.05-34.83-12.56c-8.3-8.3-12.35-20.25-12.35-35.64v-238.57l390.67,121.31Z"/>
  <path class="cls-2" d="m1837.59,470.21v28.96c0,15.39-4.05,27.34-11.95,35.64-7.9,8.51-19.85,12.56-35.85,12.56s-26.73-4.05-34.83-12.56c-8.3-8.3-12.35-20.25-12.35-35.64v-58.53l94.98,29.57Z"/>
</svg>